<svg xmlns="http://www.w3.org/2000/svg" height="491.52" width="446.373"><g fill="#191716"><path d="M281.56 414.33l-58.37-45.426-58.369 45.426v69.509a7.68 7.68 0 01-7.68 7.681h-43.665a7.68 7.68 0 01-7.68-7.681V361.056c0-1.897.698-3.799 2.107-5.284l.022.004 58.332-61.532a7.66 7.66 0 015.938-2.81h101.993c2.033 0 4.063.805 5.572 2.397l-.013.014 58.341 61.544a7.653 7.653 0 012.497 5.667v122.783a7.68 7.68 0 01-7.678 7.681H289.24a7.68 7.68 0 01-7.68-7.681V414.33M89.607 15.359H56.902v93.94h32.705v-93.94"/><path d="M55.374-.001h35.76c3.785 0 7.24 1.56 9.76 4.072l.015-.015a13.793 13.793 0 014.058 9.776v96.993c0 3.786-1.559 7.24-4.072 9.76l.014.016a13.795 13.795 0 01-9.775 4.058h-35.76c-3.778 0-7.227-1.554-9.745-4.058l-.012-.013-.018-.017c-2.504-2.519-4.057-5.968-4.057-9.746V13.832c0-3.812 1.554-7.272 4.057-9.776l.016.015c2.52-2.512 5.974-4.072 9.759-4.072"/><path d="M40.71 31.525a2.846 2.846 0 00-2.015-.848c-.78 0-1.494.324-2.016.848a2.848 2.848 0 00-.848 2.015v57.576c0 .78.325 1.495.848 2.017a2.854 2.854 0 002.016.847c.778 0 1.493-.325 2.015-.847a2.856 2.856 0 00.847-2.017V33.54a2.85 2.85 0 00-.847-2.015"/><path d="M38.695 15.317c5.019 0 9.577 2.048 12.875 5.348 3.3 3.298 5.347 7.856 5.347 12.875v57.576c0 5.02-2.048 9.577-5.347 12.877-3.298 3.299-7.856 5.347-12.875 5.347-5.02 0-9.578-2.048-12.877-5.347-3.299-3.3-5.347-7.857-5.347-12.877V33.54c0-5.019 2.048-9.577 5.347-12.875 3.3-3.3 7.857-5.348 12.877-5.348"/><path d="M0 54.65h28.153v15.36H0V54.65M319.048 54.65h30.056v15.36h-30.056V54.65M163.048 54.65h122v15.36h-122V54.65M97.287 54.65h31.01v15.36h-31.01V54.65M389.473 15.359h-32.705v93.94h32.705v-93.94"/><path d="M355.241-.001h35.76c3.786 0 7.242 1.56 9.76 4.072l.015-.015a13.794 13.794 0 014.057 9.776v96.993c0 3.778-1.553 7.227-4.057 9.746l-.017.017-.012.013c-2.519 2.504-5.968 4.058-9.746 4.058h-35.76a13.794 13.794 0 01-9.774-4.058l.013-.016c-2.512-2.52-4.07-5.974-4.07-9.76V13.832c0-3.812 1.553-7.272 4.057-9.776l.013.015c2.521-2.512 5.977-4.072 9.761-4.072"/><path d="M407.681 30.677c-.778 0-1.493.324-2.016.848a2.847 2.847 0 00-.848 2.015v57.576c0 .78.326 1.495.848 2.017a2.857 2.857 0 002.016.847 2.85 2.85 0 002.015-.847 2.854 2.854 0 00.848-2.017V33.54c0-.779-.325-1.493-.848-2.015a2.842 2.842 0 00-2.015-.848"/><path d="M394.805 20.665c3.299-3.3 7.856-5.348 12.876-5.348 5.019 0 9.576 2.048 12.876 5.348 3.299 3.298 5.347 7.856 5.347 12.875v57.576c0 5.02-2.048 9.577-5.347 12.877-3.3 3.299-7.857 5.347-12.876 5.347-5.02 0-9.577-2.048-12.876-5.347-3.298-3.3-5.346-7.857-5.346-12.877V33.54c0-5.019 2.048-9.577 5.346-12.875"/><path d="M446.376 70.01h-28.153V54.65h28.153v15.36"/><path d="M167.517 56.147l13.806 69.801a59.427 59.427 0 00-1.672 1.61 61.407 61.407 0 00-18.036 43.54 61.41 61.41 0 0018.036 43.54 61.407 61.407 0 0043.54 18.035 61.41 61.41 0 0043.541-18.036 61.415 61.415 0 0018.035-43.54 61.412 61.412 0 00-18.035-43.538 59.717 59.717 0 00-1.676-1.615l13.808-69.8.245-1.292c.958-5.064 3.182-9.781 6.886-13.417 3.406-3.344 7.782-5.456 12.502-6.1 4.587-.626 9.268.138 13.466 2.068 4.173 1.918 7.737 4.92 10.426 8.636l2.642 3.652.249 4.498c.307 5.519-.783 12.579-1.544 18.076-1.32 9.543-2.901 19.075-4.519 28.571-4.441 26.065-9.326 52.084-14.28 78.057-7.354 38.564-14.953 77.091-22.71 115.578l-2.483 12.324H166.639l-2.484-12.324c-7.758-38.487-15.355-77.014-22.711-115.578-4.952-25.973-9.838-51.992-14.28-78.057-1.618-9.496-3.198-19.028-4.519-28.57-.76-5.498-1.851-12.557-1.544-18.077l.25-4.498 2.64-3.652c2.69-3.718 6.255-6.718 10.429-8.636 4.197-1.93 8.879-2.694 13.464-2.068 4.72.644 9.097 2.756 12.504 6.101 3.704 3.636 5.928 8.353 6.885 13.417l.244 1.294" fill-rule="evenodd"/><path d="M223.19 117.201c14.883 0 28.358 6.034 38.111 15.787 9.752 9.753 15.786 23.228 15.786 38.11 0 14.882-6.034 28.357-15.786 38.11-9.753 9.753-23.228 15.787-38.11 15.787-14.883 0-28.356-6.034-38.11-15.787-9.753-9.753-15.786-23.228-15.786-38.11 0-14.882 6.033-28.357 15.786-38.11 9.754-9.753 23.227-15.787 38.11-15.787"/></g></svg>