<svg id="Layer_1" data-name="Layer 1" xmlns="http://www.w3.org/2000/svg" viewBox="0 0 248 618"><defs><style>.cls-1{fill:#ffba08;}.cls-2{fill:#cc2936;}</style></defs><title>tlogga</title><polygon class="cls-1" points="152 618 228 507 233 439 246 428 248 283 124 231 0 283 1 427 15 440 20 507 96 618 78 439 39 420 36 385 94 415 102 489 124 504 147 489 153 415 212 385 208 420 170 438 152 618"/><path class="cls-1" d="M804,472c2.24-5.11,7.71-14,13-21.3A113.91,113.91,0,0,1,909,405a116,116,0,0,1,58,17.27c25.92,15.91,38.85,39.7,44,49.73L906,428.36Z" transform="translate(-782 -216)"/><path class="cls-2" d="M930,392l28-157-27,3V216l-25,12-26-11v20l-25-5,26,160a101.5,101.5,0,0,1,49,0Z" transform="translate(-782 -216)"/><path class="cls-2" d="M1052,431" transform="translate(-782 -216)"/><path class="cls-1" d="M1021,485" transform="translate(-782 -216)"/><path class="cls-1" d="M804,480" transform="translate(-782 -216)"/><path class="cls-1" d="M1011,480" transform="translate(-782 -216)"/><path class="cls-2" d="M906,447" transform="translate(-782 -216)"/><path class="cls-1" d="M792,656" transform="translate(-782 -216)"/></svg>