<svg id="Layer_1" data-name="Layer 1" xmlns="http://www.w3.org/2000/svg" viewBox="0 0 248 387"><defs><style>.cls-1{fill:#ffba08;}.cls-2{fill:#cc2936;}</style></defs><title>tlogga</title><polygon class="cls-1" points="152 387 228 276 233 208 246 197 248 52 124 0 0 52 1 196 15 209 20 276 96 387 78 208 39 189 36 154 94 184 102 258 124 273 147 258 153 184 212 154 208 189 170 207 152 387"/><path class="cls-1" d="M1021,485" transform="translate(-782 -447)"/><path class="cls-1" d="M804,480" transform="translate(-782 -447)"/><path class="cls-1" d="M1011,480" transform="translate(-782 -447)"/><path class="cls-2" d="M906,447" transform="translate(-782 -447)"/><path class="cls-1" d="M792,656" transform="translate(-782 -447)"/></svg>